PathFileType	4	(X/Y/Z)	C:\Users\u0145647\OneDrive - KU Leuven\KU Leuven\c3d2osim\CP4\T0\Data\Processed\ViconC3D_CP4_2\CP4_T0_12_gapFilled.trc
DataRate	CameraRate	NumFrames	NumMarkers	Units	OrigDataRate	OrigDataStartFrame	OrigNumFrames
100.000000	100.000000	14	47	mm	100.000000	388	516
Frame#	Time	C7			T10			CLAV			STRN			LSHO			RSHO			RBAK			LASI			RASI			LPSI			RPSI			LLAT			RLAT			LF1			LF2			LF3			LTHI			LKNE			LMEK			RF1			RF2			RF3			RTHI			RKNE			RMEK			LT1			LT2			LT3			LTIB			LANK			LMM			RT1			RT2			RT3			RTIB			RANK			RMM			LHEE			LSTL			LLCA			LTOE			LCM5			RHEE			RSTL			RLCA			RTOE			RCM5
		X1	Y1	Z1	X2	Y2	Z2	X3	Y3	Z3	X4	Y4	Z4	X5	Y5	Z5	X6	Y6	Z6	X7	Y7	Z7	X8	Y8	Z8	X9	Y9	Z9	X10	Y10	Z10	X11	Y11	Z11	X12	Y12	Z12	X13	Y13	Z13	X14	Y14	Z14	X15	Y15	Z15	X16	Y16	Z16	X17	Y17	Z17	X18	Y18	Z18	X19	Y19	Z19	X20	Y20	Z20	X21	Y21	Z21	X22	Y22	Z22	X23	Y23	Z23	X24	Y24	Z24	X25	Y25	Z25	X26	Y26	Z26	X27	Y27	Z27	X28	Y28	Z28	X29	Y29	Z29	X30	Y30	Z30	X31	Y31	Z31	X32	Y32	Z32	X33	Y33	Z33	X34	Y34	Z34	X35	Y35	Z35	X36	Y36	Z36	X37	Y37	Z37	X38	Y38	Z38	X39	Y39	Z39	X40	Y40	Z40	X41	Y41	Z41	X42	Y42	Z42	X43	Y43	Z43	X44	Y44	Z44	X45	Y45	Z45	X46	Y46	Z46	X47	Y47	Z47

388	3.87	NaN	NaN	NaN	NaN	NaN	NaN	-2672.7	1317.9	-332.23	-2706.8	1170.8	-339.46	-2661.7	1366.5	-110.99	-2546.7	1343.8	-500.71	NaN	NaN	NaN	-2730.5	884.12	-265.47	-2625.7	873.52	-435.16	-2554.7	929.78	-226.9	-2517.6	931.35	-291.86	-2710.2	951.98	-189.5	-2558.6	954.05	-445.86	-2802.4	654.28	-205.21	-2776.4	689.61	-188.44	NaN	NaN	NaN	NaN	NaN	NaN	-2850.7	464.51	-264.43	NaN	NaN	NaN	-2520.4	593.34	-441.34	-2546.3	624.58	-442.35	NaN	NaN	NaN	-2516.5	531.96	-477.43	-2521.9	405.03	-407.72	NaN	NaN	NaN	-2803.7	292.04	-231.72	-2842.8	328.41	-261.18	-2801.3	336.6	-230.47	-2859.6	217.59	-239.01	NaN	NaN	NaN	-2739.4	72.94	-339.92	-2396.4	322.29	-419.49	-2446.9	331.29	-407.1	-2419.4	373.85	-425.91	-2349.3	264.46	-456.58	-2191.8	176.36	-392.48	-2215.1	194.28	-311.33	-2687.9	48.208	-284.27	-2738	42.663	-336.57	-2735.1	40.005	-249.43	-2861.6	33.103	-320.55	-2857.9	23.96	-271.96	-2161.1	225.84	-362.67	-2185.5	178.32	-311.57	-2173.8	158.53	-385.51	-2220.1	62.253	-313.94	-2192.7	53.876	-363.42
389	3.88	NaN	NaN	NaN	NaN	NaN	NaN	-2686.2	1321.7	-335.51	-2719.4	1174.1	-342.39	-2677.3	1371	-114.32	-2559.1	1347.6	-502.94	NaN	NaN	NaN	-2744.3	888.43	-265.76	-2639	875.95	-435.48	-2567.8	932.99	-228.58	-2530.1	934.1	-293.46	-2722.2	956.39	-190.08	-2571.3	956.18	-446.95	-2813	655.83	-206.71	-2787.7	691.84	-189.76	NaN	NaN	NaN	NaN	NaN	NaN	-2858.6	462.98	-266.32	NaN	NaN	NaN	-2543.5	594.65	-442.25	-2565.7	625.95	-444.76	NaN	NaN	NaN	-2539.7	533.96	-481.54	-2547.2	406.36	-412.69	NaN	NaN	NaN	-2807.4	291.15	-232.06	-2846.5	327.31	-261.98	-2805.6	335.87	-230.39	-2862.3	216.01	-240.37	NaN	NaN	NaN	-2739.2	72.314	-339.01	-2425.9	324.82	-427.85	-2473.3	332.14	-411.83	-2445.1	372.07	-430.79	-2377.3	263.17	-461.48	-2215.1	178.41	-398.69	-2242.1	193.88	-317.43	-2688.1	48.431	-284.04	-2737.7	42.491	-336.03	-2735.2	39.694	-249.14	-2861.6	33.071	-320.53	-2858.2	23.694	-271.85	-2187.2	225.54	-367.95	-2212.8	177.62	-317.37	-2200.3	158.3	-391.17	-2252.8	62.93	-322.59	-2223.5	54.409	-372.22
390	3.89	NaN	NaN	NaN	NaN	NaN	NaN	-2699.4	1325.4	-338.79	-2732.1	1177.8	-345.65	-2692.8	1375.5	-117.76	-2571.6	1351.4	-505.17	NaN	NaN	NaN	-2757.9	892.84	-266.14	-2652.5	878.9	-435.97	-2580.4	936.18	-230.59	-2542.6	936.92	-295.18	-2734.1	961.07	-190.8	-2584.2	958.31	-448.34	-2823.2	657.1	-207.89	-2798.8	693.89	-190.84	NaN	NaN	NaN	NaN	NaN	NaN	-2863.5	462	-266.68	NaN	NaN	NaN	-2566.7	595.97	-443.15	-2586.3	629.35	-447.32	NaN	NaN	NaN	-2562.8	536.8	-486.13	-2573.2	408.59	-418.48	NaN	NaN	NaN	-2810.5	290.5	-232.04	-2849.5	326.11	-262.39	-2809.8	335.14	-230.3	-2864.2	214.71	-240.65	NaN	NaN	NaN	-2739.6	72.535	-338.78	-2452.9	325.2	-432.85	-2499.7	332.98	-416.56	-2471.6	372.37	-436.02	-2405.5	263.41	-467.03	NaN	NaN	NaN	-2270.2	194.03	-323.61	-2688.2	48.669	-283.76	-2737.9	42.871	-336.01	-2735.2	39.384	-248.85	-2861.7	33.023	-320.34	-2858.2	23.59	-271.64	-2214.6	224.62	-374.12	-2241	177.13	-323.73	-2230.2	156.9	-397.44	-2285.5	63.606	-331.25	-2255.9	54.816	-379.22
391	3.9	NaN	NaN	NaN	NaN	NaN	NaN	-2712.3	1329.2	-342.1	-2744.9	1181.5	-348.9	-2708	1380.1	-121.29	-2583.2	1355.4	-507.26	NaN	NaN	NaN	-2771.2	897.25	-266.87	-2665.9	882.06	-436.63	-2593.2	939.63	-232.43	-2555.1	939.95	-296.72	-2746.4	965.89	-191.86	-2597.3	960.74	-449.87	-2833	658.12	-208.7	-2809.3	695.68	-191.76	NaN	NaN	NaN	NaN	NaN	NaN	-2867.9	461.11	-266.41	NaN	NaN	NaN	NaN	NaN	NaN	-2606.6	632.34	-451.14	NaN	NaN	NaN	-2585.7	540.33	-490.76	-2599.9	411.86	-424.55	NaN	NaN	NaN	-2812.5	289.95	-231.45	-2852	325.11	-262.08	-2812.7	334.49	-229.76	-2865.8	213.65	-240.43	NaN	NaN	NaN	-2740	73.067	-338.78	-2480.1	327.37	-438.56	-2527.3	335.56	-422.65	-2498.4	375.06	-441.46	-2433.2	266.07	-473.75	NaN	NaN	NaN	-2299.6	193.5	-329.85	-2688.3	48.908	-283.54	-2738	42.635	-335.36	-2735.3	39.074	-248.57	-2861.8	33.01	-320.11	-2858.1	23.55	-271.35	-2243.1	223.44	-379.72	-2271.2	176.8	-329.31	-2261	155.94	-403.4	-2319.3	64.117	-338.57	-2288.6	54.757	-385.78
392	3.91	NaN	NaN	NaN	NaN	NaN	NaN	-2725.2	1332.9	-345.47	-2757.3	1185	-352.11	-2723.2	1384.6	-124.97	-2594.8	1359.4	-509.36	NaN	NaN	NaN	-2784.2	901.48	-267.98	-2679.2	885.61	-437.54	-2606.1	943.33	-234.02	-2567.8	943.09	-298.13	-2759.3	970.81	-193.56	-2610.4	963.7	-451.42	-2842.3	658.97	-209.17	-2819.7	697.43	-192.53	NaN	NaN	NaN	NaN	NaN	NaN	-2871.4	460.33	-265.28	NaN	NaN	NaN	NaN	NaN	NaN	-2627.4	636.36	-454.88	NaN	NaN	NaN	-2608.4	544.36	-495.46	-2626.5	416.02	-430.72	NaN	NaN	NaN	-2814.4	289.4	-230.86	-2854	324.41	-261.02	-2814.6	334.01	-228.98	-2866.7	212.72	-239.6	NaN	NaN	NaN	-2740.4	73.678	-338.76	-2506.9	329.69	-443.96	-2555.1	339.14	-429.31	-2525.6	379.45	-446.76	-2461.4	269.42	-480.64	NaN	NaN	NaN	-2330.2	193.22	-335.57	-2688.4	49.168	-283.3	-2738.3	43.067	-335.24	-2735.4	38.763	-248.28	-2861.8	32.98	-319.79	-2858.2	23.102	-270.9	-2272.5	221.84	-385.18	-2301.7	175.41	-335.37	-2291.8	154.97	-409.36	-2353	64.629	-345.89	-2322.4	54.75	-392.47
393	3.92	NaN	NaN	NaN	NaN	NaN	NaN	-2737.8	1336.4	-348.81	-2769.7	1188.6	-355.31	-2738.3	1388.9	-128.63	-2606	1363.3	-511.43	NaN	NaN	NaN	-2797	905.37	-269.41	-2692.4	889.24	-438.7	-2619.1	947.15	-235.21	-2580.6	946.23	-299.54	-2772.9	975.93	-195.63	-2623.3	967.02	-452.88	-2851.2	659.65	-209.4	-2829.7	699	-193.15	NaN	NaN	NaN	NaN	NaN	NaN	-2874.8	459.56	-264.15	NaN	NaN	NaN	NaN	NaN	NaN	-2646	636.85	-458.62	NaN	NaN	NaN	-2630.7	548.61	-499.92	-2653.2	420.59	-436.59	NaN	NaN	NaN	-2815.5	289.01	-229.74	-2855.7	323.77	-259.57	-2815.9	333.68	-227.91	-2867.6	212.18	-238.04	NaN	NaN	NaN	-2740.9	74.045	-338.6	-2534.7	333.02	-449.88	NaN	NaN	NaN	-2551.3	382.42	-449.87	-2490.1	272.43	-487.14	NaN	NaN	NaN	-2361.2	192.55	-341.25	-2688.4	49.411	-283.06	-2738.6	43.569	-335.2	-2735.4	38.453	-247.99	-2861.8	33.029	-319.44	-2858.2	22.654	-270.44	-2302.8	220.44	-390.4	-2333.1	174.13	-341.02	-2321.3	155.37	-415.47	-2387.8	65.383	-352.7	-2357.5	55.026	-399.1
394	3.93	NaN	NaN	NaN	NaN	NaN	NaN	-2750.4	1339.6	-352.14	NaN	NaN	NaN	-2753.1	1393	-132.39	NaN	NaN	NaN	-2551.7	1330	-427.62	-2809.6	908.95	-270.96	-2705.5	892.98	-440.04	-2632.1	950.68	-236.47	-2593.4	949.35	-300.95	-2786.6	980.85	-197.99	-2636.1	970.62	-454.23	-2859.9	660.29	-209.42	NaN	NaN	NaN	NaN	NaN	NaN	NaN	NaN	NaN	-2878.3	458.79	-263.02	NaN	NaN	NaN	NaN	NaN	NaN	-2667.1	641.68	-462.38	NaN	NaN	NaN	-2653	553.06	-504.42	NaN	NaN	NaN	NaN	NaN	NaN	-2816.4	288.84	-228.44	-2857.2	323.49	-257.72	-2816.9	333.59	-226.62	-2868	211.68	-236.26	NaN	NaN	NaN	-2741.1	74.44	-338.29	-2563	336.2	-455.79	NaN	NaN	NaN	-2580.3	388.45	-457.22	-2519	275.18	-493.33	NaN	NaN	NaN	NaN	NaN	NaN	-2688.5	49.699	-282.78	-2738.8	44.044	-335.15	-2735.5	38.143	-247.7	-2861.8	33.006	-319.03	NaN	NaN	NaN	-2333.7	218.66	-395.14	-2365.3	172.51	-346.44	NaN	NaN	NaN	-2423.4	65.828	-360.46	-2392.9	55.284	-406.41
395	3.94	NaN	NaN	NaN	NaN	NaN	NaN	NaN	NaN	NaN	NaN	NaN	NaN	NaN	NaN	NaN	NaN	NaN	NaN	NaN	NaN	NaN	NaN	NaN	NaN	NaN	NaN	NaN	NaN	NaN	NaN	NaN	NaN	NaN	NaN	NaN	NaN	NaN	NaN	NaN	NaN	NaN	NaN	NaN	NaN	NaN	NaN	NaN	NaN	NaN	NaN	NaN	NaN	NaN	NaN	NaN	NaN	NaN	NaN	NaN	NaN	NaN	NaN	NaN	NaN	NaN	NaN	NaN	NaN	NaN	NaN	NaN	NaN	NaN	NaN	NaN	NaN	NaN	NaN	NaN	NaN	NaN	NaN	NaN	NaN	NaN	NaN	NaN	NaN	NaN	NaN	NaN	NaN	NaN	NaN	NaN	NaN	NaN	NaN	NaN	NaN	NaN	NaN	NaN	NaN	NaN	NaN	NaN	NaN	NaN	NaN	NaN	NaN	NaN	NaN	NaN	NaN	NaN	NaN	NaN	NaN	NaN	NaN	NaN	NaN	NaN	NaN	NaN	NaN	NaN	NaN	NaN	NaN	NaN	NaN	NaN	NaN	NaN	NaN	NaN	NaN	NaN
396	3.95	NaN	NaN	NaN	NaN	NaN	NaN	NaN	NaN	NaN	NaN	NaN	NaN	NaN	NaN	NaN	NaN	NaN	NaN	NaN	NaN	NaN	NaN	NaN	NaN	NaN	NaN	NaN	NaN	NaN	NaN	NaN	NaN	NaN	NaN	NaN	NaN	NaN	NaN	NaN	NaN	NaN	NaN	NaN	NaN	NaN	NaN	NaN	NaN	NaN	NaN	NaN	NaN	NaN	NaN	NaN	NaN	NaN	NaN	NaN	NaN	NaN	NaN	NaN	NaN	NaN	NaN	NaN	NaN	NaN	NaN	NaN	NaN	NaN	NaN	NaN	NaN	NaN	NaN	NaN	NaN	NaN	NaN	NaN	NaN	NaN	NaN	NaN	NaN	NaN	NaN	NaN	NaN	NaN	NaN	NaN	NaN	NaN	NaN	NaN	NaN	NaN	NaN	NaN	NaN	NaN	NaN	NaN	NaN	NaN	NaN	NaN	NaN	NaN	NaN	NaN	NaN	NaN	NaN	NaN	NaN	NaN	NaN	NaN	NaN	NaN	NaN	NaN	NaN	NaN	NaN	NaN	NaN	NaN	NaN	NaN	NaN	NaN	NaN	NaN	NaN	NaN
397	3.96	NaN	NaN	NaN	NaN	NaN	NaN	NaN	NaN	NaN	NaN	NaN	NaN	NaN	NaN	NaN	NaN	NaN	NaN	NaN	NaN	NaN	NaN	NaN	NaN	NaN	NaN	NaN	NaN	NaN	NaN	NaN	NaN	NaN	NaN	NaN	NaN	NaN	NaN	NaN	NaN	NaN	NaN	NaN	NaN	NaN	NaN	NaN	NaN	NaN	NaN	NaN	NaN	NaN	NaN	NaN	NaN	NaN	NaN	NaN	NaN	NaN	NaN	NaN	NaN	NaN	NaN	NaN	NaN	NaN	NaN	NaN	NaN	NaN	NaN	NaN	NaN	NaN	NaN	NaN	NaN	NaN	NaN	NaN	NaN	NaN	NaN	NaN	NaN	NaN	NaN	NaN	NaN	NaN	NaN	NaN	NaN	NaN	NaN	NaN	NaN	NaN	NaN	NaN	NaN	NaN	NaN	NaN	NaN	NaN	NaN	NaN	NaN	NaN	NaN	NaN	NaN	NaN	NaN	NaN	NaN	NaN	NaN	NaN	NaN	NaN	NaN	NaN	NaN	NaN	NaN	NaN	NaN	NaN	NaN	NaN	NaN	NaN	NaN	NaN	NaN	NaN
398	3.97	NaN	NaN	NaN	NaN	NaN	NaN	NaN	NaN	NaN	NaN	NaN	NaN	NaN	NaN	NaN	NaN	NaN	NaN	NaN	NaN	NaN	NaN	NaN	NaN	NaN	NaN	NaN	NaN	NaN	NaN	NaN	NaN	NaN	NaN	NaN	NaN	NaN	NaN	NaN	NaN	NaN	NaN	NaN	NaN	NaN	NaN	NaN	NaN	NaN	NaN	NaN	NaN	NaN	NaN	NaN	NaN	NaN	NaN	NaN	NaN	NaN	NaN	NaN	NaN	NaN	NaN	NaN	NaN	NaN	NaN	NaN	NaN	NaN	NaN	NaN	NaN	NaN	NaN	NaN	NaN	NaN	NaN	NaN	NaN	NaN	NaN	NaN	NaN	NaN	NaN	NaN	NaN	NaN	NaN	NaN	NaN	NaN	NaN	NaN	NaN	NaN	NaN	NaN	NaN	NaN	NaN	NaN	NaN	NaN	NaN	NaN	NaN	NaN	NaN	NaN	NaN	NaN	NaN	NaN	NaN	NaN	NaN	NaN	NaN	NaN	NaN	NaN	NaN	NaN	NaN	NaN	NaN	NaN	NaN	NaN	NaN	NaN	NaN	NaN	NaN	NaN
399	3.98	NaN	NaN	NaN	NaN	NaN	NaN	NaN	NaN	NaN	NaN	NaN	NaN	NaN	NaN	NaN	NaN	NaN	NaN	NaN	NaN	NaN	NaN	NaN	NaN	NaN	NaN	NaN	NaN	NaN	NaN	NaN	NaN	NaN	NaN	NaN	NaN	NaN	NaN	NaN	NaN	NaN	NaN	NaN	NaN	NaN	NaN	NaN	NaN	NaN	NaN	NaN	NaN	NaN	NaN	NaN	NaN	NaN	NaN	NaN	NaN	NaN	NaN	NaN	NaN	NaN	NaN	NaN	NaN	NaN	NaN	NaN	NaN	NaN	NaN	NaN	NaN	NaN	NaN	NaN	NaN	NaN	NaN	NaN	NaN	NaN	NaN	NaN	NaN	NaN	NaN	NaN	NaN	NaN	NaN	NaN	NaN	NaN	NaN	NaN	NaN	NaN	NaN	NaN	NaN	NaN	NaN	NaN	NaN	NaN	NaN	NaN	NaN	NaN	NaN	NaN	NaN	NaN	NaN	NaN	NaN	NaN	NaN	NaN	NaN	NaN	NaN	NaN	NaN	NaN	NaN	NaN	NaN	NaN	NaN	NaN	NaN	NaN	NaN	NaN	NaN	NaN
400	3.99	NaN	NaN	NaN	NaN	NaN	NaN	NaN	NaN	NaN	NaN	NaN	NaN	NaN	NaN	NaN	NaN	NaN	NaN	NaN	NaN	NaN	NaN	NaN	NaN	NaN	NaN	NaN	NaN	NaN	NaN	NaN	NaN	NaN	NaN	NaN	NaN	NaN	NaN	NaN	NaN	NaN	NaN	NaN	NaN	NaN	NaN	NaN	NaN	NaN	NaN	NaN	NaN	NaN	NaN	NaN	NaN	NaN	NaN	NaN	NaN	NaN	NaN	NaN	NaN	NaN	NaN	NaN	NaN	NaN	NaN	NaN	NaN	NaN	NaN	NaN	NaN	NaN	NaN	NaN	NaN	NaN	NaN	NaN	NaN	NaN	NaN	NaN	NaN	NaN	NaN	NaN	NaN	NaN	NaN	NaN	NaN	NaN	NaN	NaN	NaN	NaN	NaN	NaN	NaN	NaN	NaN	NaN	NaN	NaN	NaN	NaN	NaN	NaN	NaN	NaN	NaN	NaN	NaN	NaN	NaN	NaN	NaN	NaN	NaN	NaN	NaN	NaN	NaN	NaN	NaN	NaN	NaN	NaN	NaN	NaN	NaN	NaN	NaN	NaN	NaN	NaN
401	4	NaN	NaN	NaN	NaN	NaN	NaN	NaN	NaN	NaN	NaN	NaN	NaN	NaN	NaN	NaN	NaN	NaN	NaN	NaN	NaN	NaN	NaN	NaN	NaN	NaN	NaN	NaN	NaN	NaN	NaN	NaN	NaN	NaN	NaN	NaN	NaN	NaN	NaN	NaN	NaN	NaN	NaN	NaN	NaN	NaN	NaN	NaN	NaN	NaN	NaN	NaN	NaN	NaN	NaN	NaN	NaN	NaN	NaN	NaN	NaN	NaN	NaN	NaN	NaN	NaN	NaN	NaN	NaN	NaN	NaN	NaN	NaN	NaN	NaN	NaN	NaN	NaN	NaN	NaN	NaN	NaN	NaN	NaN	NaN	NaN	NaN	NaN	NaN	NaN	NaN	NaN	NaN	NaN	NaN	NaN	NaN	NaN	NaN	NaN	NaN	NaN	NaN	NaN	NaN	NaN	NaN	NaN	NaN	NaN	NaN	NaN	NaN	NaN	NaN	NaN	NaN	NaN	NaN	NaN	NaN	NaN	NaN	NaN	NaN	NaN	NaN	NaN	NaN	NaN	NaN	NaN	NaN	NaN	NaN	NaN	NaN	NaN	NaN	NaN	NaN	NaN
